<svg xmlns="http://www.w3.org/2000/svg" width="23" height="15" fill="none" viewBox="0 0 23 15"><path fill="#fff" d="M6.443 0.349609C7.082 0.349609 7.673 0.399609 8.213 0.547609C8.70301 0.637654 9.17075 0.82244 9.59 1.09161C9.984 1.33861 10.279 1.68561 10.475 2.13061C10.672 2.57561 10.77 3.12061 10.77 3.71361C10.77 4.40661 10.623 4.99961 10.279 5.44461C9.984 5.89061 9.492 6.28561 8.902 6.58261C9.738 6.83061 10.377 7.27561 10.77 7.86861C11.164 8.46261 11.41 9.20461 11.41 10.0456C11.41 10.7386 11.262 11.3316 11.016 11.8266C10.77 12.3216 10.377 12.7666 9.934 13.0636C9.45279 13.382 8.92084 13.616 8.361 13.7556C7.771 13.9046 7.181 14.0036 6.591 14.0036H0V0.349609H6.443ZM6.049 5.88961C6.59 5.88961 7.033 5.74161 7.377 5.49461C7.721 5.24761 7.869 4.80161 7.869 4.25761C7.869 3.96061 7.819 3.66361 7.721 3.46661C7.623 3.26861 7.475 3.11961 7.279 2.97161C7.082 2.87261 6.885 2.77361 6.639 2.72461C6.393 2.67461 6.148 2.67461 5.852 2.67461H3V5.89061H6.05L6.049 5.88961ZM6.197 11.7276C6.492 11.7276 6.787 11.6776 7.033 11.6286C7.28137 11.5814 7.51628 11.48 7.721 11.3316C7.92138 11.1868 8.08903 11.0015 8.213 10.7876C8.311 10.5406 8.41 10.2436 8.41 9.89761C8.41 9.20461 8.213 8.70961 7.82 8.36361C7.426 8.06661 6.885 7.91861 6.246 7.91861H3V11.7286H6.197V11.7276ZM15.689 11.6776C16.082 12.0736 16.672 12.2716 17.459 12.2716C18 12.2716 18.492 12.1236 18.885 11.8766C19.279 11.5796 19.525 11.2826 19.623 10.9856H22.033C21.639 12.1726 21.049 13.0136 20.263 13.5576C19.475 14.0526 18.541 14.3496 17.41 14.3496C16.6864 14.3518 15.9688 14.2175 15.295 13.9536C14.6887 13.7262 14.148 13.3524 13.721 12.8656C13.2643 12.4102 12.9267 11.8494 12.738 11.2326C12.492 10.5896 12.393 9.89761 12.393 9.10561C12.393 8.36361 12.492 7.67161 12.738 7.02761C12.9745 6.4077 13.3245 5.83729 13.77 5.34561C14.213 4.90061 14.754 4.50561 15.344 4.25761C16.0007 3.99367 16.7022 3.8592 17.41 3.86161C18.246 3.86161 18.984 4.01061 19.623 4.35661C20.263 4.70261 20.754 5.09861 21.148 5.69261C21.5499 6.26314 21.8494 6.89931 22.033 7.57261C22.131 8.26461 22.18 8.95761 22.131 9.74861H15C15 10.5406 15.295 11.2826 15.689 11.6786V11.6776ZM18.787 6.48361C18.443 6.13761 17.902 5.93961 17.262 5.93961C16.82 5.93961 16.475 6.03861 16.18 6.18661C15.885 6.33561 15.689 6.53361 15.492 6.73161C15.311 6.92286 15.1912 7.16383 15.148 7.42361C15.098 7.67161 15.049 7.86861 15.049 8.06661H19.475C19.377 7.32461 19.131 6.83061 18.787 6.48361ZM14.459 1.28961H19.967V2.62561H14.46V1.28961H14.459Z"/></svg>