<svg xmlns="http://www.w3.org/2000/svg" width="20" height="20" fill="none" viewBox="0 0 14 14"><path fill="#fff" d="M4.92421 3.77958C5.04618 3.78284 5.18141 3.78944 5.31007 4.07503C5.39538 4.26515 5.5391 4.61515 5.65618 4.90026C5.74728 5.12212 5.82225 5.30468 5.841 5.34205C5.88387 5.42738 5.91026 5.52585 5.8542 5.64071C5.84759 5.65426 5.84135 5.66722 5.83533 5.6797C5.79036 5.77303 5.75836 5.83945 5.68273 5.9263C5.65163 5.96199 5.61924 6.00114 5.58697 6.04014C5.53021 6.10873 5.47381 6.17687 5.42547 6.22502C5.33974 6.3103 5.25067 6.40228 5.34959 6.57294C5.44858 6.74361 5.79485 7.30492 6.30603 7.7579C6.85558 8.24716 7.33346 8.45335 7.57502 8.55757C7.62192 8.57781 7.65991 8.5942 7.68779 8.60807C7.85931 8.69341 7.96152 8.68027 8.06045 8.56541C8.15944 8.45048 8.48918 8.06643 8.60464 7.89577C8.71676 7.7251 8.83217 7.75137 8.9905 7.81043C9.14877 7.8695 9.99303 8.28309 10.1645 8.36842C10.1984 8.3853 10.2301 8.4005 10.2595 8.41459C10.3788 8.47181 10.4599 8.5107 10.4943 8.56868C10.5372 8.64087 10.5372 8.98226 10.3954 9.38272C10.2503 9.78317 9.55111 10.1672 9.2345 10.1968C9.20453 10.1996 9.1747 10.2032 9.144 10.2069C8.85386 10.242 8.48555 10.2866 7.17333 9.77004C5.55641 9.13419 4.48906 7.55661 4.27327 7.23765C4.25623 7.21247 4.2445 7.19514 4.23823 7.18673L4.23458 7.18184C4.1364 7.05047 3.53577 6.24679 3.53577 5.41758C3.53577 4.62422 3.92658 4.21118 4.10484 4.02279C4.11614 4.01085 4.12658 3.99981 4.13602 3.98964C4.29429 3.81897 4.47901 3.77631 4.59441 3.77631C4.70988 3.77631 4.82528 3.77631 4.92421 3.77958Z"/><path fill="#fff" fill-rule="evenodd" d="M0.456364 13.2206C0.40182 13.4186 0.582146 13.6014 0.780844 13.5495L3.8524 12.7472C4.82197 13.2724 5.91358 13.5514 7.025 13.5514H7.02829C10.6856 13.5514 13.6669 10.5873 13.6669 6.94385C13.6669 5.17791 12.9776 3.51697 11.7244 2.26961C10.4713 1.02232 8.80581 0.333008 7.02823 0.333008C3.37096 0.333008 0.389649 3.29704 0.389649 6.94058C0.389233 8.09967 0.695179 9.23848 1.27677 10.2427L0.456364 13.2206ZM2.24085 10.5083C2.31207 10.2498 2.27649 9.97351 2.14212 9.7415C1.64868 8.88952 1.3893 7.92334 1.38965 6.94058C1.38965 3.85406 3.91849 1.33301 7.02823 1.33301C8.54149 1.33301 9.95329 1.91766 11.019 2.97838C12.0835 4.03792 12.6669 5.44375 12.6669 6.94385C12.6669 10.0303 10.1381 12.5514 7.02829 12.5514H7.025C6.08065 12.5514 5.15266 12.3142 4.32869 11.8679C4.10567 11.7471 3.84508 11.7155 3.59969 11.7796L1.75808 12.2607L2.24085 10.5083Z" clip-rule="evenodd"/></svg>